<?xml version="1.0" encoding="UTF-8"?>
<svg width="300" height="200" xmlns="http://www.w3.org/2000/svg">
 <!-- Created with SVG-edit - http://svg-edit.googlecode.com/ -->

 <g>
  <title>Layer 1</title>
  <path fill="#ffffaa" stroke="#000000" stroke-width="2" stroke-dasharray="null" stroke-linejoin="null" stroke-linecap="null" d="m1499.966675,1076.655396c0,11.955811 -43.647339,21.667847 -97.499146,21.667847m97.499146,-21.667847l0,0c0,11.955811 -43.647339,21.667847 -97.499146,21.667847c-53.851318,0 -97.496582,-9.712036 -97.496582,-21.667847m0,0l0,0c0,-11.979858 43.645264,-21.688599 97.496582,-21.688599c53.851807,0 97.499146,9.70874 97.499146,21.688599l0,86.651978c0,11.971069 -43.647339,21.659424 -97.499146,21.659424c-53.851318,0 -97.496582,-9.688354 -97.496582,-21.659424l0,-86.651978z" id="svg_3"/>
  <path fill="#ffffaa" stroke="#000000" stroke-width="2" stroke-dasharray="null" stroke-linejoin="null" stroke-linecap="null" d="m1457.180054,1197.403931c0,0.091431 -0.333496,0.165527 -0.744995,0.165527m0.744995,-0.165527l0,0c0,0.091431 -0.333496,0.165527 -0.744995,0.165527c-0.411499,0 -0.744995,-0.074097 -0.744995,-0.165527m0,0l0,0c0,-0.091431 0.333496,-0.165649 0.744995,-0.165649c0.411499,0 0.744995,0.074219 0.744995,0.165649l0,0.662109c0,0.091553 -0.333496,0.165649 -0.744995,0.165649c-0.411499,0 -0.744995,-0.074097 -0.744995,-0.165649l0,-0.662109z" id="svg_4"/>
  <path fill="#ffffaa" stroke="#000000" stroke-width="2" stroke-dasharray="null" stroke-linejoin="null" stroke-linecap="null" d="m1449.220703,1060.164063c0,9.931152 -36.269775,18.008545 -81.00708,18.008545m81.00708,-18.008545l0,0c0,9.931152 -36.269775,18.008545 -81.00708,18.008545c-44.741455,0 -80.999512,-8.077393 -80.999512,-18.008545m0,0l0,0c0,-9.937256 36.258057,-18.021362 80.999512,-18.021362c44.737305,0 81.00708,8.084106 81.00708,18.021362l0,72.000244c0,9.952881 -36.269775,17.982056 -81.00708,17.982056c-44.741455,0 -80.999512,-8.029175 -80.999512,-17.982056l0,-72.000244z" id="svg_5"/>
  <path fill="#ffffaa" stroke="#000000" stroke-width="2" stroke-dasharray="null" stroke-linejoin="null" stroke-linecap="null" d="m1451.209961,1139.69397c0,0.091431 -0.333496,0.165527 -0.744995,0.165527m0.744995,-0.165527l0,0c0,0.091431 -0.333496,0.165527 -0.744995,0.165527c-0.411499,0 -0.744995,-0.074097 -0.744995,-0.165527m0,0l0,0c0,-0.091431 0.333496,-0.165649 0.744995,-0.165649c0.411499,0 0.744995,0.074219 0.744995,0.165649l0,0.662109c0,0.091553 -0.333496,0.165649 -0.744995,0.165649c-0.411499,0 -0.744995,-0.074097 -0.744995,-0.165649l0,-0.662109z" id="svg_6"/>
  <path fill="#ffffaa" stroke="#000000" stroke-width="2" stroke-dasharray="null" stroke-linejoin="null" stroke-linecap="null" d="m1449.220947,1132.19043c0,0.919067 -3.356445,1.665283 -7.498047,1.665283m7.498047,-1.665283l0,0c0,0.919067 -3.356445,1.665283 -7.498047,1.665283c-4.141602,0 -7.498413,-0.746216 -7.498413,-1.665283m0,0l0,0c0,-0.921143 3.356812,-1.667725 7.498413,-1.667725c4.141602,0 7.498047,0.746582 7.498047,1.667725l0,6.664185c0,0.921143 -3.356445,1.666504 -7.498047,1.666504c-4.141602,0 -7.498413,-0.745361 -7.498413,-1.666504l0,-6.664185z" id="svg_7"/>
  <path fill="#ffffaa" stroke="#000000" stroke-width="2" stroke-dasharray="null" stroke-linejoin="null" stroke-linecap="null" d="m1430.314941,1093.92395c0,0.091431 -0.333496,0.165527 -0.744995,0.165527m0.744995,-0.165527l0,0c0,0.091431 -0.333496,0.165527 -0.744995,0.165527c-0.411499,0 -0.744995,-0.074097 -0.744995,-0.165527m0,0l0,0c0,-0.091431 0.333496,-0.165649 0.744995,-0.165649c0.411499,0 0.744995,0.074219 0.744995,0.165649l0,0.662109c0,0.091553 -0.333496,0.165649 -0.744995,0.165649c-0.411499,0 -0.744995,-0.074097 -0.744995,-0.165649l0,-0.662109z" id="svg_8"/>
  <path id="svg_2" d="m440.474243,655.28125l-13.487854,-13.501953l8.881927,0l13.48822,13.501953l-13.48822,13.501892l-8.881927,0l13.487854,-13.501892z" stroke-linecap="null" stroke-linejoin="null" stroke-dasharray="null" stroke-width="null" stroke="#000000" fill="#ffffaa"/>
  <path id="svg_1" d="m392.516785,477.09256l2.248169,0l0.74939,1.498779l-0.74939,1.498779l-2.248169,0l0.74939,-1.498779l-0.74939,-1.498779z" stroke-linecap="null" stroke-linejoin="null" stroke-dasharray="null" stroke-width="9" stroke="#000000" fill="#ffffaa"/>
  <path fill="#000000" stroke="#000000" stroke-width="9" stroke-dasharray="null" stroke-linejoin="null" stroke-linecap="null" d="m1105.943237,422.720276c0,9.02124 -32.900513,16.334412 -73.498047,16.334412m73.498047,-16.334412l0,0c0,9.02124 -32.900513,16.334412 -73.498047,16.334412c-40.592224,0 -73.503357,-7.313171 -73.503357,-16.334412m0,0l0,0c0,-9.017853 32.911133,-16.331818 73.503357,-16.331818c40.597534,0 73.498047,7.313965 73.498047,16.331818l0,65.33429c0,9.022125 -32.900513,16.330475 -73.498047,16.330475c-40.592224,0 -73.503357,-7.30835 -73.503357,-16.330475l0,-65.33429z" id="svg_10"/>
  <path fill="#000000" stroke="#000000" stroke-width="9" stroke-dasharray="null" stroke-linejoin="null" stroke-linecap="null" d="m1093.7052,361.019745c0,14.603577 -53.275757,26.44278 -119.002319,26.44278m119.002319,-26.44278l0,0c0,14.603577 -53.275757,26.44278 -119.002319,26.44278c-65.720398,0 -118.996582,-11.839203 -118.996582,-26.44278m0,0l0,0c0,-14.607544 53.276184,-26.44751 118.996582,-26.44751c65.726563,0 119.002319,11.839966 119.002319,26.44751l0,105.781281c0,14.604187 -53.275757,26.444977 -119.002319,26.444977c-65.720398,0 -118.996582,-11.84079 -118.996582,-26.444977l0,-105.781281z" id="svg_11"/>
  <path id="svg_9" d="m578.106262,470.004974c0,0.061432 -0.224121,0.111237 -0.500549,0.111237m0.500549,-0.111237l0,0c0,0.061432 -0.224121,0.111237 -0.500549,0.111237c-0.276428,0 -0.500549,-0.049805 -0.500549,-0.111237m0,0l0,0c0,-0.061432 0.224121,-0.111237 0.500549,-0.111237c0.276428,0 0.500549,0.049805 0.500549,0.111237l0,0.444946c0,0.061432 -0.224121,0.111267 -0.500549,0.111267c-0.276428,0 -0.500549,-0.049835 -0.500549,-0.111267l0,-0.444946z" stroke-width="5" stroke="#000000" fill="#FF0000"/>
  <path id="svg_12" d="m803.96814,378.463684c0,0.061279 -0.223572,0.110962 -0.499268,0.110962m0.499268,-0.110962l0,0c0,0.061279 -0.223572,0.110962 -0.499268,0.110962c-0.275757,0 -0.499268,-0.049683 -0.499268,-0.110962m0,0l0,0c0,-0.061249 0.223511,-0.110931 0.499268,-0.110931c0.275696,0 0.499268,0.049683 0.499268,0.110931l0,0.443817c0,0.061279 -0.223572,0.110931 -0.499268,0.110931c-0.275757,0 -0.499268,-0.049652 -0.499268,-0.110931l0,-0.443817z" stroke-width="5" stroke="#000000" fill="#FF0000"/>
  <path id="svg_13" d="m1021.374878,410.359436c0,0.091736 -0.334595,0.166138 -0.747437,0.166138m0.747437,-0.166138l0,0c0,0.091736 -0.334595,0.166138 -0.747437,0.166138c-0.412842,0 -0.747437,-0.074402 -0.747437,-0.166138m0,0l0,0c0,-0.091736 0.334595,-0.166107 0.747437,-0.166107c0.412842,0 0.747437,0.074371 0.747437,0.166107l0,0.664398c0,0.091736 -0.334595,0.166107 -0.747437,0.166107c-0.412842,0 -0.747437,-0.074371 -0.747437,-0.166107l0,-0.664398z" stroke-width="5" stroke="#000000" fill="#FF0000"/>
  <path id="svg_14" d="m1051.748047,426.779968c0,0.368011 -1.342163,0.666412 -2.998779,0.666412m2.998779,-0.666412l0,0c0,0.368011 -1.342163,0.666412 -2.998779,0.666412c-1.656372,0 -2.999268,-0.298401 -2.999268,-0.666412m0,0l0,0c0,-0.368103 1.342896,-0.666504 2.999268,-0.666504c1.656616,0 2.998779,0.298401 2.998779,0.666504l0,2.665833c0,0.368256 -1.342163,0.666626 -2.998779,0.666626c-1.656372,0 -2.999268,-0.29837 -2.999268,-0.666626l0,-2.665833z" stroke-width="5" stroke="#000000" fill="#FF0000"/>
  <path transform="rotate(90, 150.258, 93.2734)" id="svg_16" d="m217.004272,-2.049177c0,26.316848 -29.883942,47.662954 -66.743561,47.662954m66.743561,-47.662954l0,0c0,26.316848 -29.883942,47.662954 -66.743561,47.662954c-36.862518,0 -66.748558,-21.346106 -66.748558,-47.662954m0,0l0,0c0,-26.331593 29.88604,-47.676371 66.748558,-47.676371c36.859619,0 66.743561,21.344778 66.743561,47.676371l0,190.659818c0,26.324234 -29.883942,47.66362 -66.743561,47.66362c-36.862518,0 -66.748558,-21.339386 -66.748558,-47.66362l0,-190.659818z" stroke-width="12" stroke="#000000" fill="#ffffaa"/>
  <path id="svg_17" d="m1091.022461,429.329193c0,5.983307 -21.83374,10.833313 -48.760132,10.833313m48.760132,-10.833313l0,0c0,5.983307 -21.83374,10.833313 -48.760132,10.833313c-26.923767,0 -48.747864,-4.850006 -48.747864,-10.833313m0,0l0,0c0,-5.980804 21.824097,-10.831146 48.747864,-10.831146c26.926392,0 48.760132,4.850342 48.760132,10.831146l0,43.332245c0,5.980408 -21.83374,10.832733 -48.760132,10.832733c-26.923767,0 -48.747864,-4.852325 -48.747864,-10.832733l0,-43.332245z" stroke-width="5" stroke="#000000" fill="#FF0000"/>
 </g>
</svg>