<?xml version="1.0" encoding="UTF-8"?>
<svg width="300" height="300" xmlns="http://www.w3.org/2000/svg">
 <!-- Created with SVG-edit - http://svg-edit.googlecode.com/ -->

 <g>
  <title>Layer 1</title>
  <path fill="#ffffaa" stroke="#000000" stroke-width="2" stroke-dasharray="null" stroke-linejoin="null" stroke-linecap="null" d="m1499.966675,1076.655396c0,11.955811 -43.647339,21.667847 -97.499146,21.667847m97.499146,-21.667847l0,0c0,11.955811 -43.647339,21.667847 -97.499146,21.667847c-53.851318,0 -97.496582,-9.712036 -97.496582,-21.667847m0,0l0,0c0,-11.979858 43.645264,-21.688599 97.496582,-21.688599c53.851807,0 97.499146,9.70874 97.499146,21.688599l0,86.651978c0,11.971069 -43.647339,21.659424 -97.499146,21.659424c-53.851318,0 -97.496582,-9.688354 -97.496582,-21.659424l0,-86.651978z" id="svg_3"/>
  <path fill="#ffffaa" stroke="#000000" stroke-width="2" stroke-dasharray="null" stroke-linejoin="null" stroke-linecap="null" d="m1457.180054,1197.403931c0,0.091431 -0.333496,0.165527 -0.744995,0.165527m0.744995,-0.165527l0,0c0,0.091431 -0.333496,0.165527 -0.744995,0.165527c-0.411499,0 -0.744995,-0.074097 -0.744995,-0.165527m0,0l0,0c0,-0.091431 0.333496,-0.165649 0.744995,-0.165649c0.411499,0 0.744995,0.074219 0.744995,0.165649l0,0.662109c0,0.091553 -0.333496,0.165649 -0.744995,0.165649c-0.411499,0 -0.744995,-0.074097 -0.744995,-0.165649l0,-0.662109z" id="svg_4"/>
  <path fill="#ffffaa" stroke="#000000" stroke-width="2" stroke-dasharray="null" stroke-linejoin="null" stroke-linecap="null" d="m1449.220703,1060.164063c0,9.931152 -36.269775,18.008545 -81.00708,18.008545m81.00708,-18.008545l0,0c0,9.931152 -36.269775,18.008545 -81.00708,18.008545c-44.741455,0 -80.999512,-8.077393 -80.999512,-18.008545m0,0l0,0c0,-9.937256 36.258057,-18.021362 80.999512,-18.021362c44.737305,0 81.00708,8.084106 81.00708,18.021362l0,72.000244c0,9.952881 -36.269775,17.982056 -81.00708,17.982056c-44.741455,0 -80.999512,-8.029175 -80.999512,-17.982056l0,-72.000244z" id="svg_5"/>
  <path fill="#ffffaa" stroke="#000000" stroke-width="2" stroke-dasharray="null" stroke-linejoin="null" stroke-linecap="null" d="m1451.209961,1139.69397c0,0.091431 -0.333496,0.165527 -0.744995,0.165527m0.744995,-0.165527l0,0c0,0.091431 -0.333496,0.165527 -0.744995,0.165527c-0.411499,0 -0.744995,-0.074097 -0.744995,-0.165527m0,0l0,0c0,-0.091431 0.333496,-0.165649 0.744995,-0.165649c0.411499,0 0.744995,0.074219 0.744995,0.165649l0,0.662109c0,0.091553 -0.333496,0.165649 -0.744995,0.165649c-0.411499,0 -0.744995,-0.074097 -0.744995,-0.165649l0,-0.662109z" id="svg_6"/>
  <path fill="#ffffaa" stroke="#000000" stroke-width="2" stroke-dasharray="null" stroke-linejoin="null" stroke-linecap="null" d="m1449.220947,1132.19043c0,0.919067 -3.356445,1.665283 -7.498047,1.665283m7.498047,-1.665283l0,0c0,0.919067 -3.356445,1.665283 -7.498047,1.665283c-4.141602,0 -7.498413,-0.746216 -7.498413,-1.665283m0,0l0,0c0,-0.921143 3.356812,-1.667725 7.498413,-1.667725c4.141602,0 7.498047,0.746582 7.498047,1.667725l0,6.664185c0,0.921143 -3.356445,1.666504 -7.498047,1.666504c-4.141602,0 -7.498413,-0.745361 -7.498413,-1.666504l0,-6.664185z" id="svg_7"/>
  <path fill="#ffffaa" stroke="#000000" stroke-width="2" stroke-dasharray="null" stroke-linejoin="null" stroke-linecap="null" d="m1430.314941,1093.92395c0,0.091431 -0.333496,0.165527 -0.744995,0.165527m0.744995,-0.165527l0,0c0,0.091431 -0.333496,0.165527 -0.744995,0.165527c-0.411499,0 -0.744995,-0.074097 -0.744995,-0.165527m0,0l0,0c0,-0.091431 0.333496,-0.165649 0.744995,-0.165649c0.411499,0 0.744995,0.074219 0.744995,0.165649l0,0.662109c0,0.091553 -0.333496,0.165649 -0.744995,0.165649c-0.411499,0 -0.744995,-0.074097 -0.744995,-0.165649l0,-0.662109z" id="svg_8"/>
  <path id="svg_2" d="m440.474243,655.28125l-13.487854,-13.501953l8.881927,0l13.48822,13.501953l-13.48822,13.501892l-8.881927,0l13.487854,-13.501892z" stroke-linecap="null" stroke-linejoin="null" stroke-dasharray="null" stroke-width="null" stroke="#000000" fill="#ffffaa"/>
  <path id="svg_1" d="m392.516785,477.09256l2.248169,0l0.74939,1.498779l-0.74939,1.498779l-2.248169,0l0.74939,-1.498779l-0.74939,-1.498779z" stroke-linecap="null" stroke-linejoin="null" stroke-dasharray="null" stroke-width="9" stroke="#000000" fill="#ffffaa"/>
 </g>
</svg>