<?xml version="1.0" encoding="UTF-8"?>
<svg width="65" height="20" xmlns="http://www.w3.org/2000/svg">
 <!-- Created with SVG-edit - http://svg-edit.googlecode.com/ -->

 <g>
  <title>Layer 1</title>
  <g id="g842">
   <path stroke-linejoin="round" stroke="#333333" d="m6.690173,0.58165c-0.705,0.02498 -1.49584,0.2524 -1.91769,0.7395c-0.613629,1.258561 0.87702,0.67744 1.05234,1.548751c0.17532,0.8713 -0.87696,0.91949 -0.87696,0.91949l0,0l-4.534059,0c0,0 0.00578,4.328139 0.00578,4.328139c0,0 0.05007,1.012889 0.95524,0.844119c0.90517,-0.16875 0.30148,-1.60363 1.60895,-1.012959c0.50601,0.40608 0.74227,1.16731 0.76823,1.84595c0.00958,0.2505 -0.01313,0.48613 -0.05797,0.692039c-0.00115,0.00914 -0.00312,0.01877 -0.00434,0.02791c-0.07859,0.58554 -0.31365,1.17953 -0.74072,1.52227c-1.307481,0.59067 -0.70378,-0.844211 -1.608951,-1.01298c-0.65966,-0.12297 -0.86328,0.38009 -0.92622,0.66276l0,4.593261l4.71235,0c0.28764,0.054331 0.84611,0.245029 0.7146,0.89851c-0.17532,0.87125 -1.664529,0.290199 -1.05088,1.548729c0.35602,0.411081 0.97309,0.63735 1.58141,0.71306c0.00949,0.001091 0.01948,0.003059 0.02898,0.00415c0.21394,0.0432 0.45871,0.06502 0.71897,0.055849c0.70502,-0.025089 1.49581,-0.252449 1.91769,-0.739449c0.613641,-1.258541 -0.877029,-0.67749 -1.05234,-1.548731c-0.17532,-0.87146 0.87696,-0.91968 0.87696,-0.91968l4.50796,-0.01244l0,-4.558371c0.0643,-0.283629 0.26916,-0.77942 0.924789,-0.6572c0.90517,0.16877 0.3015,1.60365 1.608961,1.01298c0.427071,-0.34271 0.662128,-0.938101 0.7407,-1.523641c0.001249,-0.00914 0.00321,-0.017369 0.00437,-0.026509c0.04484,-0.205931 0.067551,-0.44153 0.05797,-0.69206c-0.02594,-0.67862 -0.26222,-1.43985 -0.76823,-1.84593c-1.30748,-0.59067 -0.70378,0.84419 -1.60896,1.01296c-0.905169,0.16877 -0.955219,-0.84414 -0.955219,-0.84414l-0.004371,-4.368599l-4.73844,0c-0.29711,-0.06616 -0.78686,-0.26753 -0.66243,-0.88599c0.17532,-0.871311 1.66453,-0.29022 1.0509,-1.548751c-0.35605,-0.41107 -0.97312,-0.63736 -1.58141,-0.71299c-0.00949,-0.00118 -0.01951,-0.00307 -0.029,-0.00419c-0.21391,-0.04316 -0.45868,-0.06504 -0.71894,-0.05581l0,0l-0.00002,-0.00001l0,0z" id="path1512" fill-rule="evenodd" fill-opacity="0.5" fill="none" transform="rotate(180, 8.56055, 10.0422)"/>
   <path stroke-width="0" d="m7.421663,1.30854c-0.70502,0.02498 -1.49584,0.2524 -1.91772,0.7395c-0.61362,1.258531 0.87702,0.677441 1.05234,1.548751c0.17532,0.871279 -0.87693,0.919479 -0.87693,0.919479l0,0l-4.534079,0c0,0 0.0058,4.328119 0.0058,4.328119c0,0 0.05005,1.01291 0.95522,0.844151c0.90517,-0.16877 0.30148,-1.60365 1.60895,-1.01295c0.50601,0.40607 0.742289,1.167299 0.768229,1.84592c0.0096,0.25053 -0.01313,0.48613 -0.05797,0.69206c-0.00115,0.00913 -0.00312,0.01876 -0.00434,0.0279c-0.07857,0.58554 -0.31365,1.1795 -0.740719,1.52224c-1.30745,0.590671 -0.70375,-0.8442 -1.60893,-1.01298c-0.65968,-0.12298 -0.8633,0.38009 -0.92625,0.66276l0,4.59316l4.712339,0c0.28767,0.05455 0.84611,0.245251 0.71462,0.898729c-0.17534,0.871241 -1.66452,0.290201 -1.0509,1.548731c0.35604,0.411079 0.97312,0.637341 1.58142,0.712839c0.00949,0.001301 0.01951,0.003271 0.029,0.00436c0.21391,0.042992 0.45868,0.065022 0.71894,0.055641c0.70502,-0.024881 1.495841,-0.25223 1.91771,-0.73946c0.61362,-1.25853 -0.87702,-0.677481 -1.05236,-1.548721c-0.17531,-0.871248 0.87695,-0.919458 0.87695,-0.919458l4.50799,-0.012661l0,-4.55827c0.0643,-0.28363 0.269139,-0.7794 0.92478,-0.65717c0.90518,0.16877 0.301479,1.60365 1.60895,1.01296c0.42708,-0.34271 0.66213,-0.93807 0.7407,-1.523641c0.00123,-0.00914 0.003191,-0.01735 0.004351,-0.02649c0.04484,-0.20593 0.067551,-0.44156 0.05797,-0.69206c-0.02594,-0.67864 -0.26222,-1.43987 -0.76824,-1.84595c-1.30745,-0.59067 -0.703779,0.8442 -1.608951,1.01298c-0.905169,0.16875 -0.955219,-0.844151 -0.955219,-0.844151l-0.004351,-4.368589l-4.73846,0c-0.297111,-0.06618 -0.78686,-0.267529 -0.66241,-0.886009c0.175309,-0.87129 1.664519,-0.2902 1.0509,-1.548751c-0.35607,-0.41107 -0.97311,-0.63734 -1.581409,-0.71299c-0.009521,-0.00118 -0.01951,-0.00308 -0.029,-0.00417c-0.21392,-0.04318 -0.45871,-0.06504 -0.71897,-0.05581l0.00002,0l0.00003,0l0,-0.00001l0,0.00001z" id="path1139" stroke-linejoin="round" stroke="#333333" fill-rule="evenodd" fill="none" transform="rotate(180, 9.2931, 10.7687)"/>
  </g>
  <rect fill="#e5e5e5" stroke="#000000" stroke-width="0" x="12" y="7.39984" width="8.000001" height="8" id="svg_6"/>
  <text fill="#3f3f3f" stroke="#000000" stroke-width="0" x="39.542785" y="22.3" id="svg_2" font-size="15" font-family="Cursive" text-anchor="middle" xml:space="preserve" font-style="italic" transform="matrix(0.647006, 0, 0, 0.666667, 5.9156, -1)">Web Picture</text>
 </g>
</svg>