<?xml version="1.0" encoding="UTF-8"?>
<svg width="800" height="250" xmlns="http://www.w3.org/2000/svg">
 <!-- Created with SVG-edit - http://svg-edit.googlecode.com/ -->

 <g>
  <title>Layer 1</title>
  <g id="g842">
   <path stroke-linejoin="round" stroke="#333333" d="m128.910461,238.16954c8.903015,-0.311005 18.889923,-3.142639 24.217316,-9.207748c7.749176,-15.6707 -11.075439,-8.435059 -13.289291,-19.283966c-2.21405,-10.848709 11.074478,-11.4487 11.074478,-11.4487l0,0l57.25769,0c0,0 -0.073029,-53.890961 -0.073029,-53.890961c0,0 -0.632233,-12.611832 -12.062988,-10.510529c-11.430771,2.10112 -3.807251,19.967346 -20.318375,12.612778c-6.390106,-5.056229 -9.373749,-14.534546 -9.701538,-22.984612c-0.121017,-3.118904 0.165741,-6.052956 0.73204,-8.616684c0.014481,-0.113815 0.03952,-0.233696 0.054718,-0.347496c0.992584,-7.290741 3.961014,-14.686729 9.354141,-18.954323c16.511322,-7.354584 8.887589,10.511467 20.318359,12.612984c8.330521,1.531136 10.90181,-4.732704 11.696701,-8.252296l0,-57.192036l-59.509125,0c-3.632462,-0.676373 -10.685028,-3.05088 -9.024216,-11.187471c2.213852,-10.848141 21.020157,-3.61326 13.270798,-19.283771c-4.495926,-5.11837 -12.288452,-7.93595 -19.970551,-8.87831c-0.119858,-0.01368 -0.246078,-0.03838 -0.365936,-0.05168c-2.701752,-0.53806 -5.792747,-0.80975 -9.079514,-0.69575c-8.903214,0.31273 -18.889534,3.1436 -24.217323,9.207371c-7.749168,15.67051 11.075439,8.43563 13.28949,19.283389c2.213852,10.850801 -11.074669,11.451559 -11.074669,11.451559l-56.928181,0.154652l0,56.757721c-0.812008,3.531555 -3.398918,9.704765 -11.67857,8.182938c-11.430759,-2.101295 -3.807428,-19.967537 -20.318358,-12.612976c-5.393301,4.267204 -8.361741,11.680687 -9.35392,18.97142c-0.0158,0.113815 -0.04047,0.216217 -0.05511,0.330017c-0.56633,2.564133 -0.85305,5.497597 -0.73204,8.617081c0.32758,8.449684 3.31124,17.927986 9.70134,22.984245c16.51132,7.354568 8.8876,-10.511292 20.31856,-12.612793c11.430759,-2.101288 12.062801,10.510742 12.062801,10.510742l0.055309,54.394791l59.838623,0c3.752129,0.823608 9.936806,3.330917 8.365395,11.031677c-2.21405,10.848892 -21.020157,3.613632 -13.271187,19.283951c4.496506,5.118378 12.289017,7.935959 19.970749,8.877563c0.119858,0.014816 0.246262,0.038177 0.366119,0.052246c2.701347,0.537292 5.792358,0.809738 9.079124,0.694794l0,0l0.000214,0.000168l0,0l-0.000031,0.000015l-0.000015,0z" id="path1512" fill-rule="evenodd" fill-opacity="0.5" fill="none"/>
   <path stroke-width="0" d="m138.175125,247.210724c8.903198,-0.311218 18.889908,-3.142853 24.217697,-9.207764c7.748978,-15.670319 -11.075439,-8.435059 -13.289276,-19.283966c-2.21405,-10.848541 11.074081,-11.4487 11.074081,-11.4487l0,0l57.258072,0c0,0 -0.07341,-53.890747 -0.07341,-53.890747c0,0 -0.632034,-12.61203 -12.062805,-10.510742c-11.430771,2.101318 -3.807251,19.96756 -20.318359,12.612579c-6.390121,-5.056229 -9.373962,-14.534546 -9.701538,-22.984238c-0.121201,-3.119278 0.165909,-6.052925 0.73204,-8.616875c0.014648,-0.1138 0.039505,-0.233688 0.054916,-0.347488c0.992188,-7.290741 3.960815,-14.686363 9.354111,-18.953766c16.510941,-7.354767 8.887222,10.511284 20.318176,12.612793c8.330521,1.531326 10.902008,-4.732498 11.696869,-8.252098l0,-57.190903l-59.509125,0c-3.632629,-0.679031 -10.68483,-3.053539 -9.024399,-11.19051c2.214233,-10.847759 21.020157,-3.613258 13.271179,-19.28339c-4.496307,-5.118759 -12.289017,-7.93595 -19.970749,-8.87603c-0.119843,-0.01596 -0.24646,-0.04066 -0.366302,-0.05434c-2.701385,-0.53502 -5.792358,-0.80936 -9.078949,-0.69271c-8.903206,0.31007 -18.890106,3.14056 -24.217506,9.20737c-7.74897,15.670132 11.075249,8.435631 13.28949,19.28339c2.213852,10.84853 -11.074478,11.448521 -11.074478,11.448521l-56.928379,0.157688l0,56.75639c-0.812012,3.531563 -3.398922,9.704575 -11.67857,8.182564c-11.430771,-2.101318 -3.807041,-19.967552 -20.318361,-12.612595c-5.393299,4.267204 -8.361549,11.680115 -9.35372,18.971245c-0.01561,0.1138 -0.04028,0.216019 -0.05492,0.329819c-0.56633,2.564133 -0.85305,5.497986 -0.732039,8.617065c0.327579,8.44989 3.311239,17.928192 9.701539,22.984451c16.510931,7.354568 8.8876,-10.511292 20.318369,-12.612793c11.430763,-2.101288 12.062801,10.510742 12.062801,10.510742l0.055111,54.394608l59.838821,0c3.752121,0.82399 9.936806,3.331116 8.365196,11.03186c-2.213852,10.848709 -21.020149,3.613449 -13.271179,19.283966c4.496498,5.118378 12.288834,7.93576 19.970558,8.877747c0.120239,0.014618 0.246445,0.038361 0.366302,0.051849c2.70137,0.537689 5.792755,0.809753 9.07933,0.695007l-0.000198,0l-0.000381,0l0,0l0,0l-0.000015,0z" id="path1139" stroke-linejoin="round" stroke="#333333" fill-rule="evenodd" fill="none"/>
  </g>
  <rect fill="#e5e5e5" stroke="#000000" stroke-width="0" x="162" y="66.42299" width="74" height="109" id="svg_6"/>
  <text fill="#3f3f3f" stroke="#000000" stroke-width="0" x="40.08074" y="22.47009" id="svg_2" font-size="15" font-family="Cursive" text-anchor="middle" xml:space="preserve" font-style="italic" transform="matrix(8.57053, 0, 0, 7.7731, 64.4872, -16.5638)">Web Picture</text>
 </g>
</svg>